<mxfile host="drawio-plugin" modified="2022-12-10T02:51:02.821Z" agent="5.0 (Windows NT 6.2; Win64; x64) AppleWebKit/537.36 (KHTML, like Gecko) Chrome/98.0.4758.102 Safari/537.36" etag="yfvyRopa_CkeTi7fNVN8" version="15.5.4" type="embed"><diagram id="imdrc2UIk3vCbtPCmj0C" name="HandView"><mxGraphModel dx="933" dy="554" grid="1" gridSize="10" guides="1" tooltips="1" connect="1" arrows="1" fold="1" page="1" pageScale="1" pageWidth="850" pageHeight="1100" math="0" shadow="0"><root><mxCell id="0"/><mxCell id="1" parent="0"/><mxCell id="6" value="HandView" style="swimlane;fontStyle=1;align=center;verticalAlign=top;childLayout=stackLayout;horizontal=1;startSize=26;horizontalStack=0;resizeParent=1;resizeParentMax=0;resizeLast=0;collapsible=1;marginBottom=0;" parent="1" vertex="1"><mxGeometry x="300" y="70" width="260" height="274" as="geometry"/></mxCell><mxCell id="-0JScGyVXgbVzNVO4lvY-70" value="- BACKGROUND_COLOR: Color" style="text;strokeColor=none;fillColor=none;align=left;verticalAlign=top;spacingLeft=4;spacingRight=4;overflow=hidden;rotatable=0;points=[[0,0.5],[1,0.5]];portConstraint=eastwest;fontStyle=6" parent="6" vertex="1"><mxGeometry y="26" width="260" height="24" as="geometry"/></mxCell><mxCell id="-0JScGyVXgbVzNVO4lvY-68" value="- selected_row: JPanel" style="text;strokeColor=none;fillColor=none;align=left;verticalAlign=top;spacingLeft=4;spacingRight=4;overflow=hidden;rotatable=0;points=[[0,0.5],[1,0.5]];portConstraint=eastwest;fontStyle=4" parent="6" vertex="1"><mxGeometry y="50" width="260" height="24" as="geometry"/></mxCell><mxCell id="-0JScGyVXgbVzNVO4lvY-71" value="- unselected_row: JPanel" style="text;strokeColor=none;fillColor=none;align=left;verticalAlign=top;spacingLeft=4;spacingRight=4;overflow=hidden;rotatable=0;points=[[0,0.5],[1,0.5]];portConstraint=eastwest;fontStyle=4" parent="6" vertex="1"><mxGeometry y="74" width="260" height="24" as="geometry"/></mxCell><mxCell id="-0JScGyVXgbVzNVO4lvY-72" value="- handTileMap: HashMap&lt;Tile, HandTileView&gt;" style="text;strokeColor=none;fillColor=none;align=left;verticalAlign=top;spacingLeft=4;spacingRight=4;overflow=hidden;rotatable=0;points=[[0,0.5],[1,0.5]];portConstraint=eastwest;fontStyle=4" parent="6" vertex="1"><mxGeometry y="98" width="260" height="24" as="geometry"/></mxCell><mxCell id="-0JScGyVXgbVzNVO4lvY-73" value="- model: ScrabbleModel" style="text;strokeColor=none;fillColor=none;align=left;verticalAlign=top;spacingLeft=4;spacingRight=4;overflow=hidden;rotatable=0;points=[[0,0.5],[1,0.5]];portConstraint=eastwest;fontStyle=0" parent="6" vertex="1"><mxGeometry y="122" width="260" height="24" as="geometry"/></mxCell><mxCell id="8" value="" style="line;strokeWidth=1;fillColor=none;align=left;verticalAlign=middle;spacingTop=-1;spacingLeft=3;spacingRight=3;rotatable=0;labelPosition=right;points=[];portConstraint=eastwest;" parent="6" vertex="1"><mxGeometry y="146" width="260" height="8" as="geometry"/></mxCell><mxCell id="-0JScGyVXgbVzNVO4lvY-74" value="- HandView(ScrabbleModel)" style="text;strokeColor=none;fillColor=none;align=left;verticalAlign=top;spacingLeft=4;spacingRight=4;overflow=hidden;rotatable=0;points=[[0,0.5],[1,0.5]];portConstraint=eastwest;" parent="6" vertex="1"><mxGeometry y="154" width="260" height="24" as="geometry"/></mxCell><mxCell id="-0JScGyVXgbVzNVO4lvY-76" value="- updateSelectionRow(TileSelectEvent)" style="text;strokeColor=none;fillColor=none;align=left;verticalAlign=top;spacingLeft=4;spacingRight=4;overflow=hidden;rotatable=0;points=[[0,0.5],[1,0.5]];portConstraint=eastwest;" parent="6" vertex="1"><mxGeometry y="178" width="260" height="24" as="geometry"/></mxCell><mxCell id="45" value="- updateNewHand(Hand)" style="text;strokeColor=none;fillColor=none;align=left;verticalAlign=top;spacingLeft=4;spacingRight=4;overflow=hidden;rotatable=0;points=[[0,0.5],[1,0.5]];portConstraint=eastwest;" parent="6" vertex="1"><mxGeometry y="202" width="260" height="24" as="geometry"/></mxCell><mxCell id="-0JScGyVXgbVzNVO4lvY-75" value="- addNewTileView(Tile)" style="text;strokeColor=none;fillColor=none;align=left;verticalAlign=top;spacingLeft=4;spacingRight=4;overflow=hidden;rotatable=0;points=[[0,0.5],[1,0.5]];portConstraint=eastwest;" parent="6" vertex="1"><mxGeometry y="226" width="260" height="24" as="geometry"/></mxCell><mxCell id="-0JScGyVXgbVzNVO4lvY-69" value="- updateGUI()" style="text;strokeColor=none;fillColor=none;align=left;verticalAlign=top;spacingLeft=4;spacingRight=4;overflow=hidden;rotatable=0;points=[[0,0.5],[1,0.5]];portConstraint=eastwest;" parent="6" vertex="1"><mxGeometry y="250" width="260" height="24" as="geometry"/></mxCell><mxCell id="15" value="&lt;&lt;interface&gt;&gt;&#10;ModelListener" style="swimlane;fontStyle=1;childLayout=stackLayout;horizontal=1;startSize=30;fillColor=none;horizontalStack=0;resizeParent=1;resizeParentMax=0;resizeLast=0;collapsible=1;marginBottom=0;" parent="1" vertex="1"><mxGeometry x="20" y="180" width="220" height="54" as="geometry"/></mxCell><mxCell id="17" value="+ handleModelEvent(ModelEvent): void" style="text;strokeColor=none;fillColor=none;align=left;verticalAlign=top;spacingLeft=4;spacingRight=4;overflow=hidden;rotatable=0;points=[[0,0.5],[1,0.5]];portConstraint=eastwest;fontStyle=0" parent="15" vertex="1"><mxGeometry y="30" width="220" height="24" as="geometry"/></mxCell><mxCell id="44" value="" style="endArrow=block;dashed=1;endFill=0;endSize=12;html=1;rounded=0;" parent="1" source="6" target="15" edge="1"><mxGeometry width="160" relative="1" as="geometry"><mxPoint x="400" y="250" as="sourcePoint"/><mxPoint x="436.4459459459458" y="454" as="targetPoint"/></mxGeometry></mxCell><mxCell id="ZHR1I3pd5ZIeeANlfA-7-67" value="JPanel" style="swimlane;fontStyle=1;align=center;verticalAlign=top;childLayout=stackLayout;horizontal=1;startSize=40;horizontalStack=0;resizeParent=1;resizeParentMax=0;resizeLast=0;collapsible=1;marginBottom=0;" parent="1" vertex="1"><mxGeometry x="330" y="10" width="220" height="30" as="geometry"/></mxCell><mxCell id="ZHR1I3pd5ZIeeANlfA-7-70" value="" style="endArrow=block;endSize=16;endFill=0;html=1;rounded=0;exitX=0;exitY=0;exitDx=0;exitDy=0;" parent="1" source="6" target="ZHR1I3pd5ZIeeANlfA-7-67" edge="1"><mxGeometry width="160" relative="1" as="geometry"><mxPoint x="705" y="520" as="sourcePoint"/><mxPoint x="705" y="374" as="targetPoint"/><Array as="points"><mxPoint x="300" y="30"/></Array></mxGeometry></mxCell><mxCell id="ZHR1I3pd5ZIeeANlfA-7-71" value="" style="endArrow=diamondThin;endFill=0;endSize=24;html=1;rounded=0;entryX=1;entryY=0;entryDx=0;entryDy=0;" parent="1" source="ZHR1I3pd5ZIeeANlfA-7-67" target="6" edge="1"><mxGeometry width="160" relative="1" as="geometry"><mxPoint x="600" y="160" as="sourcePoint"/><mxPoint x="585" y="573.8888888888889" as="targetPoint"/><Array as="points"><mxPoint x="560" y="30"/><mxPoint x="560" y="70"/></Array></mxGeometry></mxCell><mxCell id="-0JScGyVXgbVzNVO4lvY-78" value="HandTileView" style="swimlane;fontStyle=1;align=center;verticalAlign=top;childLayout=stackLayout;horizontal=1;startSize=30;horizontalStack=0;resizeParent=1;resizeParentMax=0;resizeLast=0;collapsible=1;marginBottom=0;" parent="1" vertex="1"><mxGeometry x="615" y="270" width="210" height="30" as="geometry"/></mxCell><mxCell id="-0JScGyVXgbVzNVO4lvY-85" value="Tile" style="swimlane;fontStyle=1;align=center;verticalAlign=top;childLayout=stackLayout;horizontal=1;startSize=30;horizontalStack=0;resizeParent=1;resizeParentMax=0;resizeLast=0;collapsible=1;marginBottom=0;" parent="1" vertex="1"><mxGeometry x="660" y="110" width="120" height="30" as="geometry"/></mxCell><mxCell id="-0JScGyVXgbVzNVO4lvY-90" value="HashMap&lt;Tile, HandTileView&gt;" style="swimlane;fontStyle=1;align=center;verticalAlign=top;childLayout=stackLayout;horizontal=1;startSize=40;horizontalStack=0;resizeParent=1;resizeParentMax=0;resizeLast=0;collapsible=1;marginBottom=0;" parent="1" vertex="1"><mxGeometry x="620" y="187" width="200" height="40" as="geometry"/></mxCell><mxCell id="-0JScGyVXgbVzNVO4lvY-97" value="" style="endArrow=diamondThin;endFill=0;endSize=24;html=1;rounded=0;" parent="1" source="-0JScGyVXgbVzNVO4lvY-90" target="6" edge="1"><mxGeometry width="160" relative="1" as="geometry"><mxPoint x="520" y="39.0625" as="sourcePoint"/><mxPoint x="570" y="80" as="targetPoint"/></mxGeometry></mxCell><mxCell id="-0JScGyVXgbVzNVO4lvY-98" value="" style="endArrow=diamondThin;endFill=0;endSize=24;html=1;rounded=0;" parent="1" source="-0JScGyVXgbVzNVO4lvY-78" target="-0JScGyVXgbVzNVO4lvY-90" edge="1"><mxGeometry width="160" relative="1" as="geometry"><mxPoint x="633.8461538461538" y="160" as="sourcePoint"/><mxPoint x="720" y="200" as="targetPoint"/></mxGeometry></mxCell><mxCell id="-0JScGyVXgbVzNVO4lvY-99" value="" style="endArrow=diamondThin;endFill=0;endSize=24;html=1;rounded=0;" parent="1" source="-0JScGyVXgbVzNVO4lvY-85" target="-0JScGyVXgbVzNVO4lvY-90" edge="1"><mxGeometry width="160" relative="1" as="geometry"><mxPoint x="720" y="210" as="sourcePoint"/><mxPoint x="720" y="160" as="targetPoint"/></mxGeometry></mxCell></root></mxGraphModel></diagram></mxfile>